<?xml version="1.0" encoding="UTF-8"?>
<svg id="Layer_1" xmlns="http://www.w3.org/2000/svg" version="1.1" viewBox="0 0 32 32">
  <!-- Generator: Adobe Illustrator 30.1.0, SVG Export Plug-In . SVG Version: 2.1.1 Build 136)  -->
  <defs>
    <style>
      .st0 {
        fill: #5b198d;
      }

      .st1 {
        fill: #68249a;
      }

      .st2 {
        fill: #4f39f6;
      }

      .st3 {
        fill: #601c92;
      }

      .st4 {
        fill: #2c24dd;
      }

      .st5 {
        fill: #68239b;
      }

      .st6 {
        fill: #6f2aa2;
      }

      .st7 {
        fill: #fdfdfd;
      }
    </style>
  </defs>
  <polygon class="st4" points="5.35 14.89 4.18 15.42 4.18 14.34 5.34 13.8 5.35 14.89"/>
  <polygon class="st4" points="8.54 11.72 7.41 12.24 7.4 11.15 8.53 10.64 8.54 11.72"/>
  <polygon class="st0" points="17.52 24.75 17.47 24.73 17.53 13.35 17.52 24.75"/>
  <g>
    <g>
      <path class="st2" d="M17.68,26.76c-1.18.03-2.36.07-3.55.1-1.18-.42-2.87-1.05-4.9-1.88-1.5-.62-2.27-.94-3.04-1.35-2.33-1.26-4.53-2.45-4.84-4.42-.27-1.65.9-3.16,1.65-3.95-.21.44-.34.82-.43,1.1-.11.34-.27.88-.31,1.57-.03.44-.06.95.1,1.47.25.8.85,1.27,1.37,1.65,2.1,1.51,4.3,2.4,5.06,2.7,1.55.62,2.74,1.04,3.02,1.14,1.44.51,3.44,1.17,5.88,1.88Z"/>
      <g>
        <path class="st4" d="M15.77,24.04c1.54.4,3.09.79,4.63,1.19.03-4.29.04-8.6.04-12.91h.05s5.1,2.32,5.1,2.32v1.16s-3.79-1.55-3.79-1.55c-.05.15-.03.3,0,.47l3.8,1.55c.02.3.02.57,0,.89l-3.79-1.51c-.03.18-.02.3,0,.46l3.8,1.53v.9s-3.8-1.51-3.8-1.51c-.04.16-.02.3,0,.46l3.8,1.52c.03.29.01.58,0,.9l-3.79-1.52c-.04.15-.04.3,0,.47l3.79,1.52c.02.29.01.56,0,.88l-3.79-1.5c-.04.14-.04.28,0,.45l3.78,1.55c.03.28.03.57,0,.85l-2.4-.94-1.38-.55c-.04.16-.03.3,0,.47l3.8,1.51c.02.3.02.6,0,.91l-3.79-1.53c-.04.15-.03.3,0,.47l3.79,1.53c.03.3.03.6,0,.91l-3.79-1.53c-.04.15-.03.3,0,.48l3.8,1.52.02.51,5.77,1.2c-.18-.04.15-.02.13.05-.01.04-.08.02-.13.02-1.55-.02-3.1.12-4.65-.13-3.19-.52-6.32-1.28-9.46-2.09-3.27-.84-7.81-2.28-10.8-3.78-.94-.47-2.37-1.3-2.88-2.24-.36-.67-.13-1.36.5-1.81-.29.6-.14,1.24.31,1.66h.1c.2.24.43.45.7.62l.04.09c-.07.05.69.52.74.52.02-.13-.03-.24.05-.29.09.03.12.13.09.3.41.21.62.32.62.32l.07.12c-.09.02.67.37.64.31h.13c.13.06.78.39.84.35-.01-.28,0-.55.05-.81.02,0,.03-.08.07-.04.03.02.02.05.02.09v.95c.54.22,1.07.42,1.61.6.02-.03.03-.05.03-.05l.03-16.09,5.46-3.78s.05-.03.07.02l.02,21.61Z"/>
        <g>
          <g>
            <path class="st1" d="M20.5,12.32s-.04.07-.04.15v12.71c0,.06-.02.05-.05.04v-12.93c.06-.04.08,0,.09.02Z"/>
            <path class="st3" d="M25.57,22.61v-.85c.07.27.06.58,0,.85Z"/>
          </g>
          <g>
            <path class="st6" d="M15.77,24.04l-.05-21.57c0-.05-.01-.06-.04-.06.03-.08.12-.05.09.05v21.58Z"/>
            <path class="st6" d="M10.17,22.33l.06-16.14v16.14s-.04,0-.06,0Z"/>
            <path class="st4" d="M8.47,20.74s.05.07.05.13v.84c-.41-.18-.77-.29-1.07-.51.32-.16.69-.34,1.02-.47Z"/>
            <path class="st7" d="M14.73,7.21v16.52c-.41,0-.82-.21-1.26-.32V5.82c.47.46.87.93,1.26,1.39Z"/>
            <path class="st7" d="M12.49,9.88v13.17c-.41,0-.8-.24-1.21-.32,0-4.72-.01-9.43-.04-14.15,0-.03.02-.05.04-.05l1.21,1.34Z"/>
            <path class="st6" d="M14.73,23.73V7.21s0,16.52,0,16.52Z"/>
            <path class="st6" d="M11.28,22.74l-.04-14.15s.03.01.03.06v14.09Z"/>
            <path class="st5" d="M12.5,23.06v-13.17s0,13.17,0,13.17Z"/>
          </g>
        </g>
      </g>
    </g>
    <polygon class="st4" points="6.76 15.92 4.18 17.1 4.17 16 6.74 14.8 6.76 15.92"/>
    <polygon class="st4" points="6.76 12.55 4.18 13.75 4.17 12.66 6.74 11.47 6.76 12.55"/>
    <polygon class="st4" points="6.01 14.57 5.99 13.48 8.53 12.3 8.52 13.4 6.01 14.57"/>
    <path class="st4" d="M6.02,17.93c-.04-.38-.03-.74-.01-1.1l2.51-1.15.02,1.09-2.52,1.17Z"/>
    <polygon class="st4" points="8.54 10.03 6 11.24 6 10.13 8.52 8.97 8.54 10.03"/>
    <path class="st4" d="M6.81,20.89c-.28-.09-.52-.23-.78-.38v-.35s2.5-1.11,2.5-1.11c.01.41.02.74,0,1.08l-1.71.76Z"/>
    <path class="st4" d="M5.24,19.94c-.19.08-.99-.84-.85-.7l2.36-1.06v1.09s-1.51.68-1.51.68Z"/>
    <path class="st4" d="M4.19,18.75c-.05-.38-.02-.73-.02-1.09l1.17-.52v1.1s-1.15.52-1.15.52Z"/>
    <polygon class="st4" points="5.36 11.55 4.18 12.09 4.17 10.99 5.35 10.45 5.36 11.55"/>
    <polygon class="st4" points="8.53 15.08 7.41 15.6 7.4 14.5 8.52 14 8.53 15.08"/>
    <polygon class="st4" points="8.53 18.46 7.41 18.95 7.4 17.86 8.52 17.35 8.53 18.46"/>
    <path class="st2" d="M17.19,5.79c0-.41.09-.79.24-1.14l-1.73-2.3c.02,7.23.04,14.47.06,21.7.57.14,1.15.29,1.72.43.02-1.85.04-3.7.05-5.57.01-1.95.02-3.9.01-5.82l1.02-.62v-4.23c-.83-.49-1.39-1.4-1.39-2.45Z"/>
  </g>
  <g>
    <path class="st2" d="M20.38,5.18l.13-.13.12-.13.13-.14.12-.13.12-.13.12-.13.12-.13.12-.13.12-.13.12-.13.11-.12s.07-.06.11-.04c.05.03.05.07.02.12l-1.71,2.95s-.06.06-.1.07-.09,0-.12-.04l-1.19-1.61s-.02-.06,0-.09c.02-.02.05-.05.09-.03l1.03.57s.08.03.12-.01l.04-.05.11-.12.12-.13.12-.13Z"/>
    <path class="st2" d="M21.08,7.23c.33-.3.61-.79.64-1.22v-.16s.01-.08.01-.13v-.15c-.02-.13-.06-.25-.09-.38-.01-.04.02-.08.05-.09.04,0,.08,0,.1.04.05.16.08.32.1.48,0,.11,0,.21,0,.31-.08,1.04-.91,1.86-1.94,1.94-.1,0-.2,0-.3,0-.53-.03-1.05-.28-1.4-.68-.39-.43-.58-.99-.54-1.57.07-1.03.91-1.87,1.94-1.94.11,0,.21,0,.31,0,.27.02.52.09.77.21.04.02.05.06.04.1-.06.13-.35-.14-.78-.15h-.16c-.47-.02-.95.16-1.3.48-.38.34-.64.82-.66,1.33v.13s0,.08,0,.12c.03.43.2.84.48,1.16.05.06.1.11.16.16.39.35.89.52,1.41.49.44-.02.85-.2,1.18-.5Z"/>
  </g>
</svg>